<svg xmlns="http://www.w3.org/2000/svg" width="144" height="16" viewBox="0 0 144 16" shape-rendering="crispEdges">
  <rect width="16" height="16" x="0" fill="#8b5a2b"/><path fill="#a66d34" d="M2 2h3v2H2zm8 5h3v2h-3zM4 11h2v2H4z"/>
  <rect width="16" height="16" x="16" fill="#96622f"/><path fill="#b97939" d="M1 5h4v2H1zm9-3h2v3h-2zM7 11h4v2H7z"/>
  <rect width="16" height="16" x="32" fill="#805126"/><path fill="#a86b32" d="M3 1h2v4H3zm7 7h4v2h-4zM1 12h3v2H1z"/>
  <rect width="16" height="16" x="48" fill="#70441f"/><path fill="#9a6030" d="M2 3h4v2H2zm8 2h3v3h-3zM6 11h2v3H6z"/>
  <rect width="16" height="16" x="64" fill="#7d7d7d"/><rect x="67" y="3" width="3" height="2" fill="#9d9d9d"/>
  <rect width="16" height="16" x="80" fill="#727272"/><path fill="#9b9b9b" d="M2 2h3v2H2zm7 6h4v2H9z"/>
  <rect width="16" height="16" x="96" fill="#bf8f43"/><path fill="#e1b35e" d="M3 3h3v3H3zm7 6h4v3h-4z"/>
  <rect width="16" height="16" x="112" fill="#9b6b35"/><path fill="#d29a50" d="M2 5h12v2H2zm2 2h2v7H4zm6 0h2v7h-2z"/>
  <rect width="16" height="16" x="128" fill="#54616f"/><path fill="#8996a3" d="M0 1h16v2H0zm3 6h4v2H3zm6 4h4v2H9z"/>
</svg>
